HIERARCHY
ROOT Hips
{
	OFFSET 0.00000 0.00000 0.00000
	CHANNELS 6 Xposition Yposition Zposition Zrotation Yrotation Xrotation 
	JOINT LHipJoint
	{
		OFFSET 0 0 0
		CHANNELS 3 Zrotation Yrotation Xrotation
		JOINT LeftUpLeg
		{
			OFFSET 1.48831 -1.59570 0.95625
			CHANNELS 3 Zrotation Yrotation Xrotation
			JOINT LeftLeg
			{
				OFFSET 2.20856 -6.06797 0.00000
				CHANNELS 3 Zrotation Yrotation Xrotation
				JOINT LeftFoot
				{
					OFFSET 2.62924 -7.22379 0.00000
					CHANNELS 3 Zrotation Yrotation Xrotation
					JOINT LeftToeBase
					{
						OFFSET 0.16802 -0.46163 2.41673
						CHANNELS 3 Zrotation Yrotation Xrotation
						End Site
						{
							OFFSET 0.00000 -0.00000 1.23760
						}
					}
				}
			}
		}
	}
	JOINT RHipJoint
	{
		OFFSET 0 0 0
		CHANNELS 3 Zrotation Yrotation Xrotation
		JOINT RightUpLeg
		{
			OFFSET -1.56796 -1.59570 0.95625
			CHANNELS 3 Zrotation Yrotation Xrotation
			JOINT RightLeg
			{
				OFFSET -2.29239 -6.29829 0.00000
				CHANNELS 3 Zrotation Yrotation Xrotation
				JOINT RightFoot
				{
					OFFSET -2.66963 -7.33475 0.00000
					CHANNELS 3 Zrotation Yrotation Xrotation
					JOINT RightToeBase
					{
						OFFSET -0.18185 -0.49964 2.34359
						CHANNELS 3 Zrotation Yrotation Xrotation
						End Site
						{
							OFFSET -0.00000 -0.00000 1.20477
						}
					}
				}
			}
		}
	}
	JOINT LowerBack
	{
		OFFSET 0 0 0
		CHANNELS 3 Zrotation Yrotation Xrotation
		JOINT Spine
		{
			OFFSET 0.03505 2.15832 -0.34324
			CHANNELS 3 Zrotation Yrotation Xrotation
			JOINT Spine1
			{
				OFFSET -0.01089 2.17963 0.04689
				CHANNELS 3 Zrotation Yrotation Xrotation
				JOINT Neck
				{
					OFFSET 0 0 0
					CHANNELS 3 Zrotation Yrotation Xrotation
					JOINT Neck1
					{
						OFFSET 0.04686 1.69404 0.22159
						CHANNELS 3 Zrotation Yrotation Xrotation
						JOINT Head
						{
							OFFSET 0.00265 1.69305 -0.01513
							CHANNELS 3 Zrotation Yrotation Xrotation
							End Site
							{
								OFFSET -0.00415 1.80215 -0.03034
							}
						}
					}
				}
				JOINT LeftShoulder
				{
					OFFSET 0 0 0
					CHANNELS 3 Zrotation Yrotation Xrotation
					JOINT LeftArm
					{
						OFFSET 3.67184 1.11724 -0.19002
						CHANNELS 3 Zrotation Yrotation Xrotation
						JOINT LeftForeArm
						{
							OFFSET 5.17714 -0.00000 -0.00000
							CHANNELS 3 Zrotation Yrotation Xrotation
							JOINT LeftHand
							{
								OFFSET 3.43679 -0.00000 -0.00000
								CHANNELS 3 Zrotation Yrotation Xrotation
								JOINT LeftFingerBase
								{
									OFFSET 0 0 0
									CHANNELS 3 Zrotation Yrotation Xrotation
									JOINT LeftHandIndex1
									{
										OFFSET 0.57312 -0.00000 -0.00000
										CHANNELS 3 Zrotation Yrotation Xrotation
										End Site
										{
											OFFSET 0.46206 -0.00000 -0.00000
										}
									}
								}
								JOINT LThumb
								{
									OFFSET 0 0 0
									CHANNELS 3 Zrotation Yrotation Xrotation
									End Site
									{
										OFFSET 0.46912 -0.00000 0.46912
									}
								}
							}
						}
					}
				}
				JOINT RightShoulder
				{
					OFFSET 0 0 0
					CHANNELS 3 Zrotation Yrotation Xrotation
					JOINT RightArm
					{
						OFFSET -3.59596 0.95831 -0.26050
						CHANNELS 3 Zrotation Yrotation Xrotation
						JOINT RightForeArm
						{
							OFFSET -5.23908 -0.00000 -0.00000
							CHANNELS 3 Zrotation Yrotation Xrotation
							JOINT RightHand
							{
								OFFSET -3.46485 -0.00000 -0.00000
								CHANNELS 3 Zrotation Yrotation Xrotation
								JOINT RightFingerBase
								{
									OFFSET 0 0 0
									CHANNELS 3 Zrotation Yrotation Xrotation
									JOINT RightHandIndex1
									{
										OFFSET -0.60875 -0.00000 -0.00000
										CHANNELS 3 Zrotation Yrotation Xrotation
										End Site
										{
											OFFSET -0.49079 -0.00000 -0.00000
										}
									}
								}
								JOINT RThumb
								{
									OFFSET 0 0 0
									CHANNELS 3 Zrotation Yrotation Xrotation
									End Site
									{
										OFFSET -0.49829 -0.00000 0.49829
									}
								}
							}
						}
					}
				}
			}
		}
	}
}
MOTION
Frames: 11
Frame Time: 0.0869565
0.00 0.00 0.00 0 0 0 0 0 0 -21 0 0 0 0 0 0 0 0 0 0 0 0 0 0 21 0 0 0 0 0 0 0 0 0 0 0 0 0 0 0 0 0 0 0 0 0 0 -16 0 0 21 0 0 11 0 0 0 -8 0 0 0 0 0 0 0 0 0 0 0 0 0 0 0 0 0 0 0 0 8 0 0 0 0 0 0 0 0 0 0 0 0 0 0 0 0 0
0.00 0.00 0.00 -182.2820 -50.3193 196.9510 0.0000 0.0000 0.0000 -25.3092 5.2930 -35.2067 2.8409 10.4329 30.3903 0.5604 -6.0925 -13.3780 0.0001 0.0542 0.1490 0.0000 0.0000 0.0000 16.5313 11.6877 -37.4932 -5.5307 -13.9576 43.0677 -1.3533 -2.1731 -22.8562 -0.0677 -1.6782 4.6173 -1.3677 -0.9023 17.3577 0.2401 -1.7109 3.5322 1.4204 -0.9344 -5.8889 -0.1884 0.3332 17.1358 3.2550 0.9264 -21.1820 1.0600 -0.0549 -9.5465 0.0000 -0.0000 0.0000 -79.2062 9.6635 40.9830 40.7687 -48.5188 -19.0131 -0.0000 0.0000 -28.9794 20.6729 7.9753 2.9969 -7.1250 0.0000 -0.0000 -5.3178 38.4458 0.8613 0.0000 -0.0000 0.0000 81.5190 -10.6816 39.2029 -41.4618 48.9125 -19.5340 0.0000 -0.0000 -8.8717 -23.1303 -4.8614 2.0732 7.1250 -0.0000 -0.0000 2.9456 -35.2514 0.7061
0.00 0.00 0.00 -177.7660 -48.2537 194.5790 0.0000 0.0000 0.0000 -23.0082 -1.3374 -36.3077 4.0286 12.1983 36.4373 1.1994 0.5203 -20.8995 0.0043 -0.4214 -1.1579 0.0000 0.0000 0.0000 14.4505 14.7831 -49.1544 -10.0656 -17.4466 59.7073 -0.2444 -6.4209 -13.8445 -0.1206 2.2391 -6.1668 1.5304 -1.3767 27.5569 -0.2872 -1.6807 1.6248 -0.5386 -0.9947 -13.6202 2.1903 0.7900 -13.9680 1.5342 0.4590 6.7484 0.1565 0.3655 4.2852 0.0000 -0.0000 0.0000 -71.6342 12.7315 57.2724 34.9561 -44.7807 -14.7824 -0.0000 0.0000 -36.6327 22.7420 8.1108 3.3845 -7.1250 0.0000 -0.0000 -3.5569 38.7412 0.5492 0.0000 -0.0000 0.0000 78.4069 -11.3994 47.5412 -32.2882 42.7758 -12.9362 0.0000 -0.0000 -10.3229 -19.2366 -6.1778 2.1506 7.1250 -0.0000 -0.0000 6.3164 -36.4572 1.3335
0.00 0.00 0.00 -178.2630 -46.4930 193.2920 0.0000 0.0000 0.0000 -25.1897 2.8614 -32.3430 3.2681 11.1169 32.6753 1.2568 -2.0146 -20.6255 0.0046 0.4389 1.2059 0.0000 0.0000 0.0000 10.2575 16.9240 -59.5496 -15.4101 -19.4872 76.4690 0.4965 -13.0579 -9.3091 -0.0698 -1.7048 4.6906 1.0737 -1.4120 27.8804 -0.7135 -1.9212 1.3936 -0.6643 -1.0897 -14.0783 2.5576 1.1317 -17.0181 1.5619 0.6774 9.8404 0.1500 0.5422 5.7502 0.0000 0.0000 0.0000 -69.3565 14.9826 62.3752 37.5723 -46.5639 -16.6543 -0.0000 0.0000 -38.0339 23.2761 7.5094 3.2177 -7.1250 0.0000 -0.0000 -3.0384 38.1297 0.5146 0.0000 0.0000 0.0000 74.9403 -11.2374 53.0129 -33.9305 44.0332 -14.0647 0.0000 -0.0000 -10.6543 -19.5888 -6.4829 2.3009 7.1250 -0.0000 -0.0000 6.0569 -36.7982 1.2275
0.00 0.00 0.00 -184.5000 -48.3533 198.9320 0.0000 0.0000 0.0000 -26.9823 11.6352 -19.8719 4.0154 12.1808 36.3747 0.3217 -4.0033 -10.0883 1.7477 -8.3195 -23.6888 0.0000 0.0000 0.0000 11.9699 21.8446 -43.9095 -2.2695 -9.4063 27.0746 -0.9544 -6.0177 -21.5734 -0.1456 2.4593 -6.7767 -1.0345 -1.3677 25.9333 -1.7215 -3.0574 6.6904 -0.3025 -1.8133 -6.9989 1.9533 0.5443 19.5878 1.6868 1.5950 -20.9809 0.0598 0.2828 -9.9127 -0.0000 0.0000 0.0000 -73.0047 14.8401 43.3104 45.8139 -51.1610 -22.8710 -0.0000 0.0000 -29.5407 25.4802 5.7512 2.7341 -7.1250 0.0000 -0.0000 -1.0363 36.3441 0.2206 -0.0000 0.0000 0.0000 82.5647 -14.1752 32.8094 -48.0429 52.1750 -24.6196 0.0000 -0.0000 -6.7160 -21.6824 -6.1162 2.4257 7.1250 -0.0000 -0.0000 4.2585 -36.5292 0.8891
0.00 0.00 0.00 -182.9170 -49.0317 199.5920 0.0000 0.0000 0.0000 -23.3398 9.1158 -32.5856 9.0601 16.8462 56.2978 0.0066 1.5322 1.6823 0.4745 -4.4176 -12.2546 0.0000 0.0000 0.0000 14.6059 20.6992 -41.7068 -1.7882 -8.4102 23.9672 -0.7239 -6.8823 -20.0162 -0.0760 1.7786 -4.8942 -0.3962 -1.5108 26.7778 -1.0453 -2.8587 5.2682 0.0703 -1.6302 -9.0006 2.0416 0.6521 14.4352 0.9559 1.3434 -19.5162 -0.1539 0.2612 -8.4518 0.0000 -0.0000 0.0000 -73.4203 16.1906 44.9660 43.4474 -49.9848 -21.0428 -0.0000 0.0000 -29.6415 22.9057 6.2425 2.6306 -7.1250 0.0000 -0.0000 -3.2400 36.7352 0.6595 0.0000 -0.0000 0.0000 81.4632 -15.3697 36.9024 -44.9346 50.7364 -22.1881 0.0000 -0.0000 -7.2180 -19.7524 -6.7802 2.4275 7.1250 -0.0000 -0.0000 5.9544 -37.1213 1.1593
0.00 0.00 0.00 -179.4490 -50.7103 197.4030 0.0000 0.0000 0.0000 -17.0961 5.3252 -42.5325 14.9258 19.3711 75.0130 0.0592 3.8072 4.7422 0.0411 -1.3089 -3.5993 0.0000 0.0000 0.0000 18.7154 19.1404 -40.0626 -1.6284 -8.0450 22.8508 -0.4958 -7.8842 -18.4531 -0.0145 0.7783 -2.1389 1.4963 -1.9307 27.8285 -0.0351 -2.6421 4.3105 0.0944 -1.5199 -10.6459 2.1254 0.7234 8.1345 0.8013 1.1754 -15.4341 -0.1740 0.2715 -6.0048 0.0000 -0.0000 0.0000 -73.0110 16.5327 47.7587 41.1810 -48.7542 -19.3225 -0.0000 0.0000 -29.9763 20.4955 6.4405 2.4010 -7.1250 0.0000 -0.0000 -5.2896 36.8066 1.0698 0.0000 -0.0000 0.0000 79.9815 -15.2722 40.9031 -41.5892 48.9838 -19.6301 0.0000 -0.0000 -8.9116 -18.2127 -7.4216 2.4336 7.1250 -0.0000 -0.0000 7.3383 -37.6959 1.3280
0.00 0.00 0.00 -174.8580 -50.9554 193.3620 0.0000 0.0000 0.0000 -8.8183 1.7058 -53.8108 22.0841 19.8955 96.1038 -0.0503 -4.0582 2.3495 0.1323 -2.3447 -6.4593 0.0000 0.0000 0.0000 23.9035 16.8017 -40.1565 -2.1505 -9.1728 26.3375 -0.4765 -6.2518 -16.8165 -0.0025 0.3200 -0.8791 3.9454 -2.0489 29.3469 0.6442 -1.8849 3.7230 -0.7633 -1.2594 -12.1321 2.2655 0.6217 -2.3264 1.0850 0.6910 -6.9506 -0.0441 0.1865 -1.7589 -0.0000 -0.0000 0.0000 -72.2835 15.6059 51.4014 37.5357 -46.5402 -16.6277 -0.0000 0.0000 -29.8696 20.1578 6.2321 2.2820 -7.1250 0.0000 -0.0000 -5.5505 36.5663 1.1556 -0.0000 -0.0000 0.0000 78.4833 -13.6423 46.1956 -36.9466 46.1531 -16.2015 0.0000 -0.0000 -9.0029 -19.3009 -7.5561 2.6367 7.1250 -0.0000 -0.0000 6.4339 -37.9086 1.1289
0.00 0.00 0.00 -169.8150 -48.4258 188.9140 0.0000 0.0000 0.0000 1.1505 -12.0865 -75.8521 20.9193 19.9797 92.6888 0.5192 -5.1393 -12.8310 0.4353 -4.2337 -11.7352 0.0000 0.0000 0.0000 30.5599 17.2565 -37.7761 -5.1915 -13.5962 41.6434 -1.4477 -3.6646 -24.3047 -0.0119 -0.7039 1.9343 4.6130 -1.5707 31.7512 1.0718 -0.7275 1.8657 -0.9819 -0.7831 -14.4863 2.6039 0.7838 -14.5889 1.5609 0.2723 -0.4975 0.0632 0.0853 2.3663 0.0000 -0.0000 0.0000 -70.1247 9.5701 61.1853 28.4207 -39.5006 -10.3902 -0.0000 0.0000 -26.9528 22.7919 5.1051 2.1413 -7.1250 0.0000 -0.0000 -3.2446 35.4994 0.7584 0.0000 -0.0000 0.0000 75.9141 -5.1636 63.2930 -25.4054 36.6155 -8.5305 0.0000 -0.0000 -8.1279 -20.3388 -6.8924 2.5471 7.1250 -0.0000 -0.0000 5.4725 -37.2760 1.0440
0.00 0.00 0.00 -169.8320 -48.0914 188.7680 0.0000 0.0000 0.0000 -1.5067 -13.2066 -71.7308 14.7436 19.3243 74.4633 0.7221 -3.8745 -15.2111 0.3757 -3.9367 -10.8987 0.0000 0.0000 0.0000 31.5409 17.2730 -35.3943 -5.6555 -14.0860 43.5831 -1.6976 -5.1659 -26.9265 -0.0049 -0.4528 1.2443 4.3946 -1.3813 30.7557 0.9808 -0.6343 2.0721 -1.0217 -0.7179 -13.8091 2.8671 0.9073 -14.0220 1.5284 0.4582 0.7761 0.0206 0.2255 2.7008 0.0000 -0.0000 0.0000 -69.7349 9.7175 60.7494 30.0115 -40.9032 -11.4171 -0.0000 0.0000 -27.7005 24.4987 4.3563 1.9825 -7.1250 0.0000 -0.0000 -1.7803 34.7608 0.4477 0.0000 -0.0000 0.0000 76.5937 -5.3912 61.1533 -25.5439 36.7547 -8.6133 0.0000 -0.0000 -7.9227 -20.8615 -6.7374 2.5600 7.1250 -0.0000 -0.0000 5.0134 -37.1438 0.9721
0.00 0.00 0.00 -169.1430 -48.2847 188.0600 0.0000 0.0000 0.0000 -5.0643 -12.7184 -65.2552 8.3592 16.3772 53.8463 0.9332 -4.1732 -17.3321 0.7130 -5.3964 -15.0428 0.0000 0.0000 0.0000 33.0616 16.2309 -32.3893 -5.8143 -14.2459 44.2317 -2.0690 -4.6050 -29.1276 -0.0084 -0.5909 1.6236 5.1077 -1.4962 29.6423 1.0382 -0.6068 2.2563 -1.3772 -0.7292 -13.0996 3.0315 0.9132 -10.5639 1.6322 0.6444 0.2229 0.0266 0.3202 1.8790 -0.0000 0.0000 0.0000 -69.5488 10.6962 60.1933 32.2592 -42.7529 -12.9164 -0.0000 0.0000 -28.6762 25.2951 4.1592 1.9631 -7.1250 0.0000 -0.0000 -1.1125 34.5766 0.2847 -0.0000 0.0000 0.0000 76.9761 -6.1490 58.5819 -25.8140 37.0245 -8.7754 0.0000 -0.0000 -7.5046 -21.2837 -6.1934 2.4066 7.1250 -0.0000 -0.0000 4.6010 -36.5892 0.9542
